<svg width="70" height="70" viewBox="0 0 70 70" fill="none" xmlns="http://www.w3.org/2000/svg">
<path d="M51.1 21C50.4 20.6938 49.6562 20.4313 48.8688 20.1688L57.225 5.7313L52.5 3.0188L43.3125 18.8563C40.5644 18.4099 37.7841 18.1904 35 18.2C32.3341 18.2018 29.6723 18.4065 27.0375 18.8125L17.9375 3.0188L13.125 5.7313L21.4812 20.0813C20.6005 20.3272 19.738 20.6342 18.9 21C11.9875 23.8 10.9375 27.65 10.9375 29.75V55.5625C10.9375 57.5751 11.9875 61.425 18.9 64.3125C24.0491 66.2143 29.5127 67.1199 35 66.9813C40.4929 67.092 45.9567 66.1566 51.1 64.2251C58.0125 61.3813 59.0625 57.5313 59.0625 55.4751V29.7063C59.0625 27.65 58.0125 23.8 51.1 21ZM20.9563 26.25C22.0428 25.8224 23.153 25.4572 24.2813 25.1563L27.7375 31.15L32.4625 28.3938L30.0125 24.0188C31.6678 23.8158 33.3326 23.699 35 23.6688C36.7978 23.6787 38.5939 23.7809 40.3812 23.975L37.9312 28.35L42.6562 31.1063L46.0687 25.2438C50.8812 26.5563 53.5938 28.5688 53.5938 29.8813C53.5938 31.1938 52.1937 32.2438 49.2188 33.5125C44.6613 35.1389 39.8355 35.8813 35 35.7C23.45 35.7 16.4062 31.8063 16.4062 29.7063C16.4062 28.7875 17.8062 27.3438 20.9563 26.25ZM49.0438 59.3688C44.5385 60.9584 39.7743 61.6857 35 61.5126C23.45 61.5126 16.4062 57.6188 16.4062 55.5188V50.1376C17.2162 50.5747 18.0486 50.969 18.9 51.3188C24.0433 53.2503 29.5071 54.1857 35 54.0751C40.4929 54.1857 45.9567 53.2503 51.1 51.3188C51.9514 50.969 52.7838 50.5747 53.5938 50.1376V55.5188C53.5938 56.3938 52.1937 57.8813 49.0438 59.1501V59.3688ZM49.0438 46.4626C44.5385 48.0522 39.7743 48.7794 35 48.6063C23.45 48.6063 16.4062 44.7126 16.4062 42.6125V37.2313C17.2162 37.6685 18.0486 38.0628 18.9 38.4125C24.0433 40.3441 29.5071 41.2795 35 41.1688C40.4929 41.2795 45.9567 40.3441 51.1 38.4125C51.9514 38.0628 52.7838 37.6685 53.5938 37.2313V42.6125C53.5938 43.4875 52.1937 44.975 49.0438 46.2438V46.4626Z" fill="#FFD700"/>
</svg>
