<svg width="19" height="24" viewBox="0 0 19 24" fill="none" xmlns="http://www.w3.org/2000/svg">
<g clip-path="url(#clip0_56_750)">
<path d="M9.33344 0C4.18844 0 0.000109829 4.18833 0.000109829 9.33333C-0.0348902 16.8467 8.30678 22.8667 8.65678 23.1233C8.85511 23.2633 9.10011 23.345 9.33344 23.345C9.56678 23.345 9.81178 23.275 10.0101 23.1233C10.3601 22.8667 18.7018 16.8583 18.6668 9.33333C18.6668 4.18833 14.4784 0 9.33344 0ZM9.33344 14C6.75511 14 4.66678 11.9117 4.66678 9.33333C4.66678 6.755 6.75511 4.66667 9.33344 4.66667C11.9118 4.66667 14.0001 6.755 14.0001 9.33333C14.0001 11.9117 11.9118 14 9.33344 14Z" fill="#EEEEEE"/>
</g>
<defs>
<clipPath id="clip0_56_750">
<rect width="18.6669" height="23.345" fill="white"/>
</clipPath>
</defs>
</svg>
