<svg width="63" height="56" viewBox="0 0 63 56" fill="none" xmlns="http://www.w3.org/2000/svg">
<path d="M30.375 31H29.25C28.9516 31 28.6655 30.8946 28.4545 30.7071C28.2435 30.5196 28.125 30.2652 28.125 30V7H22.5V30C22.5 30.2652 22.3815 30.5196 22.1705 30.7071C21.9595 30.8946 21.6734 31 21.375 31H20.25V47C20.25 47.5304 20.4871 48.0391 20.909 48.4142C21.331 48.7893 21.9033 49 22.5 49H28.125C28.7217 49 29.294 48.7893 29.716 48.4142C30.1379 48.0391 30.375 47.5304 30.375 47V31ZM32.625 31V47C32.625 47.5304 32.8621 48.0391 33.284 48.4142C33.706 48.7893 34.2783 49 34.875 49H40.5C41.0967 49 41.669 48.7893 42.091 48.4142C42.513 48.0391 42.75 47.5304 42.75 47V31H41.625C41.3266 31 41.0405 30.8946 40.8295 30.7071C40.6185 30.5196 40.5 30.2652 40.5 30V7H34.875V30C34.875 30.2652 34.7565 30.5196 34.5455 30.7071C34.3345 30.8946 34.0484 31 33.75 31H32.625ZM18 31H16.875C16.5766 31 16.2905 30.8946 16.0795 30.7071C15.8685 30.5196 15.75 30.2652 15.75 30V7H10.125C9.52826 7 8.95597 7.21071 8.53401 7.58579C8.11205 7.96086 7.875 8.46957 7.875 9V47C7.875 47.5304 8.11205 48.0391 8.53401 48.4142C8.95597 48.7893 9.52826 49 10.125 49H15.75C16.3467 49 16.919 48.7893 17.341 48.4142C17.7629 48.0391 18 47.5304 18 47V31ZM47.25 7V30C47.25 30.2652 47.1315 30.5196 46.9205 30.7071C46.7095 30.8946 46.4234 31 46.125 31H45V47C45 47.5304 45.2371 48.0391 45.659 48.4142C46.081 48.7893 46.6533 49 47.25 49H52.875C53.4717 49 54.044 48.7893 54.466 48.4142C54.888 48.0391 55.125 47.5304 55.125 47V9C55.125 8.46957 54.888 7.96086 54.466 7.58579C54.044 7.21071 53.4717 7 52.875 7H47.25ZM7.875 3H55.125C56.3185 3 57.4631 3.42143 58.307 4.17157C59.1509 4.92172 59.625 5.93913 59.625 7V49C59.625 50.0609 59.1509 51.0783 58.307 51.8284C57.4631 52.5786 56.3185 53 55.125 53H7.875C6.68153 53 5.53693 52.5786 4.69302 51.8284C3.84911 51.0783 3.375 50.0609 3.375 49V7C3.375 5.93913 3.84911 4.92172 4.69302 4.17157C5.53693 3.42143 6.68153 3 7.875 3Z" fill="#FFD700"/>
</svg>
